<svg enable-background="new 0 0 20 20" height="20" viewBox="0 0 20 20" width="20" xmlns="http://www.w3.org/2000/svg"><path d="m0 0h20v20h-20z" fill="none"/><path d="m11.69 11.36 1-1.73c.06-.11.04-.24-.06-.32l-1.06-.83c.03-.15.04-.32.04-.48s-.01-.33-.04-.49l1.06-.83c.09-.08.12-.21.06-.32l-1-1.73c-.06-.11-.19-.15-.31-.11l-1.24.5c-.26-.2-.54-.36-.84-.49l-.19-1.32c-.02-.12-.13-.21-.25-.21h-2c-.12 0-.23.09-.25.21l-.19 1.33c-.3.13-.59.29-.84.49l-1.24-.5c-.11-.04-.24 0-.31.11l-1 1.73c-.06.1-.03.24.06.32l1.06.83c-.03.15-.04.32-.04.48s.01.33.04.49l-1.06.83c-.09.08-.12.22-.06.32l1 1.73c.06.11.19.15.31.11l1.24-.5c.26.2.54.36.84.49l.19 1.32c.02.12.13.21.25.21h2c.12 0 .23-.09.25-.21l.19-1.32c.3-.13.59-.29.84-.49l1.24.5c.12.03.24-.01.31-.12zm-3.83-1.86c-.83 0-1.5-.68-1.5-1.5 0-.83.67-1.5 1.5-1.5.82 0 1.5.67 1.5 1.5 0 .82-.68 1.5-1.5 1.5z"/><path d="m16.81 14.79-.64-.5c.01-.1.02-.19.02-.29s-.01-.2-.02-.29l.64-.5c.05-.05.07-.13.04-.19l-.6-1.04c-.04-.07-.11-.09-.19-.07l-.74.3c-.16-.12-.32-.22-.51-.29l-.11-.79c-.02-.08-.09-.13-.16-.13h-1.2c-.07 0-.14.05-.15.13l-.11.79c-.18.08-.35.17-.51.29l-.74-.3c-.07-.02-.14 0-.19.07l-.6 1.04c-.04.07-.02.14.04.19l.64.5c-.01.1-.02.19-.02.29s.01.2.02.29l-.64.5c-.05.05-.07.13-.04.19l.6 1.04c.04.07.11.09.19.07l.74-.3c.16.12.32.22.51.29l.11.79c.01.08.07.13.15.13h1.2c.07 0 .14-.05.15-.13l.11-.79c.18-.08.35-.17.5-.29l.75.3c.07.02.14 0 .19-.07l.6-1.04c.04-.06.02-.14-.03-.19zm-2.81.21c-.55 0-1-.45-1-1s.45-1 1-1 1 .45 1 1-.45 1-1 1z"/></svg>